<?xml version="1.0" encoding="UTF-8"?>
<svg width="69px" height="57px" viewBox="0 0 69 57" version="1.1" xmlns="http://www.w3.org/2000/svg" xmlns:xlink="http://www.w3.org/1999/xlink">
    <!-- Generator: Sketch 43.1 (39012) - http://www.bohemiancoding.com/sketch -->
    <title>materialize</title>
    <desc>Created with Sketch.</desc>
    <defs>
        <path d="M0.9,56.4 L0.9,28.2 L0.9,0 L913.5,0 L913.5,28.2 L913.5,56.4 L0.9,56.4 Z" id="path-1"></path>
    </defs>
    <g id="Page-1" stroke="none" stroke-width="1" fill="none" fill-rule="evenodd">
        <g id="materialize" transform="translate(-387.000000, -1.000000)">
            <g id="Group" transform="translate(0.000000, 1.000000)">
                <g id="Clipped">
                    <mask id="mask-2" fill="white">
                        <use xlink:href="#path-1"></use>
                    </mask>
                    <g id="SVGID_7_"></g>
                    <g id="XMLID_1_" mask="url(#mask-2)">
                        <g transform="translate(387.000000, 0.000000)" id="Group">
                            <g>
                                <path d="M53.3,0.1 L68.7,0.1 C66.1,0.1 63.4,11.3 61,24.3 C58.7,12.1 56,0.1 53.3,0.1 Z" id="Shape" fill="#EB7077" fill-rule="nonzero"></path>
                                <path d="M61,24.3 C60.8,25.6 60.5,26.9 60.3,28.3 C56.6,48.5 54.4,55.9 51.8,56.5 C48.9,56.5 46.1,43.4 43.8,30.6 C43.8,30.4 43.7,30.2 43.7,30 C43.8,29.4 43.9,28.9 44,28.3 C47.7,8 49.9,0.7 52.4,0.1 L53.3,0.1 C56,0.1 58.7,12.1 61,24.3 Z" id="Shape" fill="#EB7077" fill-rule="nonzero"></path>
                                <path d="M51.8,56.4 L35.5,56.4 C38.3,56.4 41.1,43.9 43.6,29.9 C43.6,30.1 43.7,30.3 43.7,30.5 C46.1,43.4 49,56.4 51.8,56.4 Z" id="Shape" fill="#EB7077" fill-rule="nonzero"></path>
                                <path d="M43.7,30 C41.1,44 38.3,56.5 35.6,56.5 C32.4,55.7 30,43.9 26.6,26 C26.5,25.4 26.4,24.9 26.3,24.3 C28.8,11.3 31.4,0.1 34,0.1 L34.9,0.1 C38,0.8 40.4,12.4 43.7,30 Z" id="Shape" fill="#F6A2AD" fill-rule="nonzero"></path>
                                <path d="M18.6,0.1 L34,0.1 C31.4,0.1 28.8,11.3 26.3,24.3 C24,12.1 21.3,0.1 18.6,0.1 Z" id="Shape" fill="#EB7077" fill-rule="nonzero"></path>
                                <path d="M26.3,24.3 C26.1,25.6 25.8,26.9 25.6,28.3 C21.9,48.5 19.7,55.9 17.1,56.5 C14.2,56.5 15.3,56 13.5,47.9 C11.7,39.8 10.3,35 8.4,32.5 C8.7,31.1 8.9,29.7 9.2,28.3 C13,8 15.2,0.7 17.7,0.1 L18.6,0.1 C21.3,0.1 24,12.1 26.3,24.3 Z" id="Shape" fill="#EB7077" fill-rule="nonzero"></path>
                                <path d="M17.1,56.4 L0.8,56.4 C3.4,56.4 6,45.3 8.5,32.4 C10.3,34.9 11.7,39.7 13.6,47.8 C15.4,55.9 14.2,56.4 17.1,56.4 Z" id="Shape" fill="#EB7077" fill-rule="nonzero"></path>
                            </g>
                        </g>
                    </g>
                </g>
            </g>
            <g id="Group" fill-rule="nonzero">
                <g id="Clipped">
                    <g id="XMLID_2_" transform="translate(375.000000, 1.000000)">
                        <g id="Group">
                            <path d="M65.3,0 L80.7,0 C78.1,0 75.4,11.2 73,24.2 C70.7,12 68,0 65.3,0 Z" id="Shape" fill="#EB7077"></path>
                            <path d="M73,24.2 C72.8,25.5 72.5,26.8 72.3,28.2 C68.6,48.4 66.4,55.8 63.8,56.4 C60.9,56.4 58.1,43.3 55.8,30.5 C55.8,30.3 55.7,30.1 55.7,29.9 C55.8,29.3 55.9,28.8 56,28.2 C59.7,7.9 61.9,0.6 64.4,0 L65.3,0 C68,0 70.7,12 73,24.2 Z" id="Shape" fill="#EB7077"></path>
                            <path d="M63.8,56.3 L47.5,56.3 C50.3,56.3 53.1,43.8 55.6,29.8 C55.6,30 55.7,30.2 55.7,30.4 C58.1,43.3 61,56.3 63.8,56.3 Z" id="Shape" fill="#EB7077"></path>
                            <path d="M55.7,29.9 C53.1,43.9 50.3,56.4 47.6,56.4 C44.5,55.7 42,43.9 38.7,25.9 C38.6,25.3 38.5,24.8 38.4,24.2 C40.8,11.2 43.4,0 46,0 L46.9,0 C50,0.7 52.4,12.2 55.7,29.9 Z" id="Shape" fill="#F6A2AD"></path>
                            <path d="M30.6,0 L46,0 C43.4,0 40.8,11.2 38.3,24.2 C36,12 33.3,0 30.6,0 Z" id="Shape" fill="#EB7077"></path>
                            <path d="M38.3,24.2 C38.1,25.5 37.8,26.8 37.6,28.2 C33.9,48.4 31.7,55.8 29.1,56.4 C26.2,56.4 27.3,55.9 25.5,47.8 C23.7,39.7 22.3,34.9 20.4,32.4 C20.7,31 20.9,29.6 21.2,28.2 C25,7.9 27.2,0.6 29.7,0 L30.6,0 C33.3,0 36,12 38.3,24.2 Z" id="Shape" fill="#EB7077"></path>
                            <path d="M29.1,56.3 L12.8,56.3 C15.4,56.3 18,45.2 20.5,32.3 C22.3,34.8 23.7,39.6 25.6,47.7 C27.4,55.8 26.2,56.3 29.1,56.3 Z" id="Shape" fill="#EB7077"></path>
                        </g>
                    </g>
                </g>
            </g>
        </g>
    </g>
</svg>